/*************************************************
 * GENERATED FROM: flower_man.mid
 * DO NOT EDIT THIS FILE MANUALLY
 *
 * This file contains the C-arrays for the melody pitch and duration.
 * It is designed for use with the Arduino tone() function or ESP32 LEDC.
 * The pitches (e.g., NOTE_C4) are defined in 'pitches.h'.
 *************************************************/
#pragma once
#include "pitches.h"

// The notes array (pitch macro names from pitches.h)
// PROGMEM is used to store the data in Flash memory on Uno/Nano.
const int melody[] PROGMEM = {
    NOTE_CS4,
    REST,
    NOTE_CS4,
    REST,
    NOTE_CS4,
    REST,
    NOTE_CS4,
    REST,
    NOTE_CS4,
    REST,
    NOTE_FS4,
    REST,
    NOTE_GS4,
    REST,
    NOTE_A3,
    REST,
    NOTE_A3,
    REST,
    NOTE_A3,
    REST,
    NOTE_A3,
    REST,
    NOTE_A3,
    REST,
    NOTE_FS4,
    REST,
    NOTE_GS4,
    REST,
    NOTE_FS3,
    REST,
    NOTE_FS3,
    REST,
    NOTE_FS3,
    REST,
    NOTE_FS3,
    REST,
    NOTE_FS3,
    REST,
    NOTE_B3,
    REST,
    NOTE_E4,
    REST,
    NOTE_FS4,
    REST,
    NOTE_E4,
    REST,
    NOTE_DS4,
    REST,
    NOTE_DS4,
    REST,
    NOTE_E4,
    REST,
    NOTE_E4,
    REST,
    NOTE_B3,
    REST,
    NOTE_E4,
    REST,
    NOTE_FS4,
    REST,
    NOTE_GS4,
    REST,
    NOTE_E4,
    REST,
    NOTE_B3,
    REST,
    NOTE_E4,
    REST,
    NOTE_DS4,
    REST,
    NOTE_B4,
    REST,
    NOTE_AS4,
    REST,
    NOTE_B4,
    REST,
    NOTE_B4,
    REST,
    NOTE_A4,
    REST,
    NOTE_GS4,
    REST,
    NOTE_FS4,
    REST,
    NOTE_E4,
    REST,
    NOTE_FS4,
    REST,
    NOTE_GS4,
    REST,
    NOTE_DS4,
    REST,
    NOTE_CS5,
    REST,
    NOTE_E5,
    REST,
    NOTE_FS5,
    REST,
    NOTE_GS5,
    REST,
    NOTE_B5,
    REST,
    NOTE_GS5,
    REST,
    NOTE_FS5,
    REST,
    NOTE_E5,
    REST,
    NOTE_FS4,
    REST,
    NOTE_GS4,
    REST,
    NOTE_CS5,
    REST,
    NOTE_E5,
    REST,
    NOTE_FS5,
    REST,
    NOTE_GS5,
    REST,
    NOTE_B5,
    REST,
    NOTE_GS5,
    REST,
    NOTE_FS5,
    REST,
    NOTE_E5,
    REST,
    NOTE_FS4,
    REST,
    NOTE_GS4,
    REST,
    NOTE_CS5,
    REST,
    NOTE_E5,
    REST,
    NOTE_FS5,
    REST,
    NOTE_GS5,
    REST,
    NOTE_B5,
    REST,
    NOTE_GS5,
    REST,
    NOTE_FS5,
    REST,
    NOTE_E5,
    REST,
    NOTE_B3,
    REST,
    NOTE_E4,
    REST,
    NOTE_FS4,
    REST,
    NOTE_E4,
    REST,
    NOTE_DS4,
    REST,
    NOTE_DS4,
    REST,
    NOTE_E4,
    REST,
    NOTE_E4,
    REST,
    NOTE_FS5,
    REST,
    NOTE_GS5,
    REST,
    NOTE_B5,
    REST,
    NOTE_GS5,
    REST,
    NOTE_FS5,
    REST,
    NOTE_E5,
    REST,
    NOTE_FS4,
    REST,
    NOTE_GS4,
    REST,
    NOTE_E4,
    REST,
    NOTE_FS5,
    REST,
    NOTE_GS5,
    REST,
    NOTE_B5,
    REST,
    NOTE_GS5,
    REST,
    NOTE_FS5,
    REST,
    NOTE_E5,
    REST,
    NOTE_DS4,
    REST,
    NOTE_B4,
    REST,
    NOTE_AS4,
    REST,
    NOTE_B4,
    REST,
    NOTE_B4,
    REST,
    NOTE_A4,
    REST,
    NOTE_GS4,
    REST,
    NOTE_FS4,
    REST,
    NOTE_E4,
    REST,
    NOTE_FS4,
    REST,
    NOTE_GS4,
    REST,
    NOTE_DS4,
    REST,
    NOTE_FS4,
    REST,
    NOTE_FS4,
    REST,
    NOTE_FS4,
    REST,
    NOTE_GS4,
    REST,
    NOTE_FS4,
    REST,
    NOTE_E4,
    REST,
    NOTE_GS4,
    REST,
    NOTE_B3,
    REST,
    NOTE_FS3,
    REST,
    NOTE_B3,
    REST,
    NOTE_E4,
    REST,
    NOTE_FS4,
    REST,
    NOTE_E4,
    REST,
    NOTE_DS4,
    REST,
    NOTE_DS4,
    REST,
    NOTE_E4,
    REST,
    NOTE_E4,
    REST,
    NOTE_GS4,
    REST,
    NOTE_A4,
    REST,
    NOTE_B4,
    REST,
    NOTE_A4,
    REST,
    NOTE_GS4,
    REST,
    NOTE_E4,
    REST,
    NOTE_FS4,
    REST,
    NOTE_E4,
    REST,
    NOTE_GS4,
    REST,
    NOTE_GS3,
    REST,
    NOTE_A3,
    REST,
    NOTE_B3,
    REST,
    NOTE_E4,
    REST,
    NOTE_DS4,
    REST,
    NOTE_E4,
    REST,
    NOTE_FS4,
    REST,
    NOTE_FS4,
    REST,
    NOTE_FS4,
    REST,
    NOTE_GS4,
    REST,
    NOTE_FS4,
    REST,
    NOTE_E4,
    REST,
    NOTE_GS4,
    REST,
    NOTE_GS3,
    REST,
    NOTE_FS3,
    REST,
    NOTE_GS3,
    REST,
    NOTE_FS3,
    REST,
    NOTE_B3,
    REST,
    NOTE_E4,
    REST,
    NOTE_A4,
    REST,
    NOTE_GS4,
    REST,
    NOTE_E4,
    REST,
    NOTE_FS4,
    REST,
    NOTE_GS4,
    REST,
    NOTE_GS4,
    REST,
    NOTE_A4,
    REST,
    NOTE_B4,
    REST,
    NOTE_CS5,
    REST,
    NOTE_B4,
    REST,
    NOTE_GS4,
    REST,
    NOTE_FS4,
    REST,
    NOTE_E4,
    REST,
    NOTE_FS4,
    REST,
    NOTE_E4,
    REST,
    NOTE_GS4,
    REST,
    NOTE_A4,
    REST,
    NOTE_B4,
    REST,
    NOTE_E5,
    REST,
    NOTE_FS5,
    REST,
    NOTE_GS5,
    REST,
    NOTE_E5,
    REST,
    NOTE_FS5,
    REST,
    NOTE_GS5,
    REST,
    NOTE_E5,
    REST,
    NOTE_GS5,
    REST,
    NOTE_A5,
    REST,
    NOTE_B5,
    REST,
    NOTE_A5,
    REST,
    NOTE_GS5,
    REST,
    NOTE_FS5,
    REST,
    NOTE_FS5,
    REST,
    NOTE_GS5,
    REST,
    NOTE_E5,
    REST,
    NOTE_B3,
    REST,
    NOTE_GS4,
    REST,
    NOTE_A4,
    REST,
    NOTE_B4,
    REST,
    NOTE_CS5,
    REST,
    NOTE_B4,
    REST,
    NOTE_A4,
    REST,
    NOTE_GS4,
    REST,
    NOTE_FS4,
    REST,
    NOTE_FS4,
    REST,
    NOTE_GS5,
    REST,
    NOTE_FS5,
    REST,
    NOTE_E5,
    REST,
    NOTE_FS5,
    REST,
    NOTE_GS5,
    REST,
    NOTE_E5,
    REST,
    NOTE_GS5,
    REST,
    NOTE_A5,
    REST,
    NOTE_B5,
    REST,
    NOTE_A5,
    REST,
    NOTE_GS5,
    REST,
    NOTE_FS5,
    REST,
    NOTE_GS5,
    REST,
    NOTE_FS5,
    REST,
    NOTE_E5,
    REST,
    NOTE_B4,
    REST,
    NOTE_GS5,
    REST,
    NOTE_A5,
    REST,
    NOTE_FS5,
    REST,
    NOTE_E5,
    REST,
    NOTE_DS5,
    REST,
    NOTE_GS5,
    REST,
    NOTE_C5,
    REST,
    NOTE_GS5,
    REST,
    NOTE_FS5,
    REST,
    NOTE_GS5,
    REST,
    NOTE_FS5,
    REST,
    NOTE_E5,
    REST,
    NOTE_FS5,
    REST,
    NOTE_GS5,
    REST,
    NOTE_FS5,
    REST,
    NOTE_E5,
    REST,
    NOTE_FS5,
    REST,
    NOTE_GS5,
    REST,
    NOTE_FS5,
    REST,
    NOTE_E5,
    REST,
    NOTE_FS5,
    REST,
    NOTE_GS5,
    REST,
    NOTE_FS5,
    REST,
    NOTE_E5,
    REST,
    NOTE_FS5,
    REST,
    NOTE_GS5,
    REST,
    NOTE_FS5,
    REST,
    NOTE_E5,
    REST,
    NOTE_FS5,
    REST,
    NOTE_GS5,
    REST,
    NOTE_FS5,
    REST,
    NOTE_E5,
    REST,
    NOTE_FS5,
    REST,
    NOTE_GS5,
    REST,
    NOTE_E5,
    REST,
    NOTE_B4,
    REST,
    NOTE_GS4,
    REST,
    NOTE_A4,
    REST,
    NOTE_B4,
    REST,
    NOTE_E5,
    REST,
    NOTE_DS5,
    REST,
    NOTE_FS5,
    REST,
    NOTE_FS5,
    REST,
    NOTE_GS5,
    REST,
    NOTE_FS5,
    REST,
    NOTE_E5,
    REST,
    NOTE_FS5,
    REST,
    NOTE_GS5,
    REST,
    NOTE_AS5,
    REST,
    NOTE_B5,
    REST,
    NOTE_E5,
    REST,
    NOTE_E4,
    REST,
    NOTE_E5,
    REST,
    NOTE_GS5,
    REST,
    NOTE_FS5,
    REST,
    NOTE_E5,
    REST,
    NOTE_FS5,
    REST,
    NOTE_E5,
    REST,
    NOTE_FS5,
    REST,
    NOTE_GS5,
    REST,
    NOTE_E5,
    REST,
    NOTE_FS5,
    REST,
    NOTE_FS5,
    REST,
    NOTE_GS5,
    REST,
    NOTE_FS5,
    REST,
    NOTE_B4,
    REST,
    NOTE_GS5,
    REST,
    NOTE_GS5,
    REST,
    NOTE_A5,
    REST,
    NOTE_B5,
    REST,
    NOTE_E6,
    REST,
    NOTE_DS6,
    REST,
    NOTE_E6,
    REST,
    NOTE_FS6,
    REST,
    NOTE_B5,
    REST,
    NOTE_E6,
    REST,
    NOTE_FS6,
    REST,
    NOTE_GS6,
    REST,
    NOTE_GS6,
    REST,
    NOTE_FS6,
    REST,
    NOTE_E6,
    REST,
    NOTE_DS6,
    REST,
    NOTE_E6,
    REST,
    NOTE_FS6,
    REST,
    NOTE_FS6,
    REST,
    NOTE_E6,
    REST,
    NOTE_DS6,
    REST,
    NOTE_B6,
    REST,
    NOTE_A6,
    REST,
    NOTE_GS6,
    REST,
    NOTE_GS5,
    REST,
    NOTE_A5,
    REST,
    NOTE_B5,
    REST,
    NOTE_E6,
    REST,
    NOTE_FS6,
    REST,
    NOTE_GS6,
    REST,
    NOTE_FS4,
    REST,
    NOTE_GS4,
    REST,
    NOTE_E4,
    REST,
    NOTE_GS3,
    REST,
    NOTE_B3,
    REST,
    NOTE_FS4,
    REST,
    NOTE_GS4,
    REST,
    NOTE_E4,
    REST,
    NOTE_B4,
    REST,
    NOTE_GS4,
    REST,
    NOTE_FS4,
    REST,
    NOTE_GS4,
    REST,
    NOTE_FS4,
    REST,
    NOTE_GS4,
    REST,
    NOTE_E4,
    REST,
    NOTE_E4,
    REST,
    NOTE_DS4,
    REST,
    NOTE_E4,
    REST,
    NOTE_CS4,
    REST,
    NOTE_E5,
    REST,
    NOTE_DS5,
    REST,
    NOTE_B4,
    REST,
    NOTE_GS3,
    REST,
    NOTE_B3,
    REST,
    NOTE_FS4,
    REST,
    NOTE_GS4,
    REST,
    NOTE_E4,
    REST,
    NOTE_GS3,
    REST,
    NOTE_B3,
    REST,
    NOTE_FS4,
    REST,
    NOTE_GS4,
    REST,
    NOTE_B4,
    REST,
    NOTE_CS5,
    REST,
    NOTE_GS4,
    REST,
    NOTE_FS4,
    REST,
    NOTE_E4,
    REST,
    NOTE_FS4,
    REST,
    NOTE_GS4,
    REST,
    NOTE_B4,
    REST,
    NOTE_GS4,
    REST,
    NOTE_FS4,
    REST,
    NOTE_FS4,
    REST,
    NOTE_B4,
    REST,
    NOTE_CS5,
    REST,
    NOTE_GS5,
    REST,
    NOTE_B5,
    REST,
    NOTE_GS5,
    REST,
    NOTE_CS5,
    REST,
    NOTE_GS4,
    REST,
    NOTE_B4,
    REST,
    NOTE_FS5,
    REST,
    NOTE_GS5,
    REST,
    NOTE_E5,
    REST,
    NOTE_GS4,
    REST,
    NOTE_B4,
    REST,
    NOTE_FS4,
    NOTE_GS4,
    NOTE_CS5,
    NOTE_FS5,
    REST,
    NOTE_GS5,
    REST,
    NOTE_E5,
    REST,
    NOTE_B5,
    REST,
    NOTE_GS5,
    REST,
    NOTE_FS5,
    REST,
    NOTE_GS5,
    REST,
    NOTE_FS5,
    REST,
    NOTE_GS5,
    REST,
    NOTE_E5,
    REST,
    NOTE_E5,
    REST,
    NOTE_DS5,
    REST,
    NOTE_E5,
    REST,
    NOTE_CS5,
    REST,
    NOTE_E6,
    REST,
    NOTE_DS6,
    REST,
    NOTE_B5,
    REST,
    NOTE_GS4,
    REST,
    NOTE_B4,
    REST,
    NOTE_FS5,
    REST,
    NOTE_GS5,
    REST,
    NOTE_E5,
    REST,
    NOTE_GS4,
    REST,
    NOTE_B4,
    REST,
    NOTE_FS4,
    NOTE_GS4,
    NOTE_CS5,
    NOTE_FS5,
    REST,
    NOTE_GS5,
    REST,
    NOTE_B5,
    REST,
    NOTE_CS6,
    REST,
    NOTE_GS5,
    REST,
    NOTE_FS5,
    REST,
    NOTE_E5,
    REST,
    NOTE_FS5,
    REST,
    NOTE_GS5,
    REST,
    NOTE_B5,
    REST,
    NOTE_GS5,
    REST,
    NOTE_FS5,
    REST,
    NOTE_FS5,
    REST,
    NOTE_B5,
    REST,
    NOTE_CS6,
    REST,
    NOTE_GS5,
    REST,
    NOTE_FS5,
    REST,
    NOTE_FS5,
    REST,
    NOTE_FS5,
    REST,
    NOTE_FS5,
    REST,
    NOTE_GS5,
    REST,
    NOTE_FS5,
    REST,
    NOTE_E5,
    REST,
    NOTE_GS5,
    REST,
    NOTE_B4,
    REST,
    NOTE_FS4,
    REST,
    NOTE_B4,
    REST,
    NOTE_E5,
    REST,
    NOTE_FS5,
    REST,
    NOTE_E5,
    REST,
    NOTE_DS5,
    REST,
    NOTE_DS5,
    REST,
    NOTE_E5,
    REST,
    NOTE_E5,
    REST,
    NOTE_GS5,
    REST,
    NOTE_A5,
    REST,
    NOTE_B5,
    REST,
    NOTE_A5,
    REST,
    NOTE_GS5,
    REST,
    NOTE_E5,
    REST,
    NOTE_FS5,
    REST,
    NOTE_E5,
    REST,
    NOTE_GS5,
    REST,
    NOTE_GS4,
    REST,
    NOTE_A4,
    REST,
    NOTE_B4,
    REST,
    NOTE_E5,
    REST,
    NOTE_DS5,
    REST,
    NOTE_E5,
    REST,
    NOTE_FS5,
    REST,
    NOTE_FS5,
    REST,
    NOTE_FS5,
    REST,
    NOTE_GS5,
    REST,
    NOTE_FS5,
    REST,
    NOTE_E5,
    REST,
    NOTE_GS5,
    REST,
    NOTE_B4,
    REST,
    NOTE_FS4,
    REST,
    NOTE_GS4,
    REST,
    NOTE_FS4,
    REST,
    NOTE_B4,
    REST,
    NOTE_E5,
    REST,
    NOTE_A5,
    REST,
    NOTE_GS5,
    REST,
    NOTE_E5,
    REST,
    NOTE_FS5,
    REST,
    NOTE_GS5,
    REST,
    NOTE_GS5,
    REST,
    NOTE_A5,
    REST,
    NOTE_B5,
    REST,
    NOTE_CS6,
    REST,
    NOTE_B5,
    REST,
    NOTE_GS5,
    REST,
    NOTE_FS5,
    REST,
    NOTE_E5,
    REST,
    NOTE_FS5,
    REST,
    NOTE_E5,
    REST,
    NOTE_GS4,
    REST,
    NOTE_A4,
    REST,
    NOTE_B4,
    REST,
    NOTE_E5,
    REST,
    NOTE_FS5,
    REST,
    NOTE_GS5,
    REST,
    NOTE_E5,
    REST,
    NOTE_FS5,
    REST,
    NOTE_GS5,
    REST,
    NOTE_E5,
    REST,
    NOTE_GS5,
    REST,
    NOTE_A5,
    REST,
    NOTE_B5,
    REST,
    NOTE_A5,
    REST,
    NOTE_GS5,
    REST,
    NOTE_FS5,
    REST,
    NOTE_FS5,
    REST,
    NOTE_GS5,
    REST,
    NOTE_E5,
    REST,
    NOTE_B3,
    REST,
    NOTE_GS4,
    REST,
    NOTE_A4,
    REST,
    NOTE_B4,
    REST,
    NOTE_CS5,
    REST,
    NOTE_B4,
    REST,
    NOTE_A4,
    REST,
    NOTE_GS4,
    REST,
    NOTE_FS4,
    REST,
    NOTE_FS4,
    REST,
    NOTE_GS5,
    REST,
    NOTE_FS5,
    REST,
    NOTE_E5,
    REST,
    NOTE_FS5,
    REST,
    NOTE_GS5,
    REST,
    NOTE_E5,
    REST,
    NOTE_GS5,
    REST,
    NOTE_A5,
    REST,
    NOTE_B5,
    REST,
    NOTE_A5,
    REST,
    NOTE_GS5,
    REST,
    NOTE_FS5,
    REST,
    NOTE_GS5,
    REST,
    NOTE_FS5,
    REST,
    NOTE_E5,
    REST,
    NOTE_B4,
    REST,
    NOTE_GS5,
    REST,
    NOTE_A5,
    REST,
    NOTE_FS5,
    REST,
    NOTE_E5,
    REST,
    NOTE_DS5,
    REST,
    NOTE_C5,
    REST,
    NOTE_GS5,
    REST,
    NOTE_A5,
    REST,
    NOTE_FS5,
    REST,
    NOTE_E5,
    REST,
    NOTE_E5
};

// The duration array in milliseconds (ms)
const int durations[] PROGMEM = {
    88,
    5,
    88,
    99,
    88,
    99,
    88,
    5,
    88,
    99,
    355,
    20,
    355,
    20,
    88,
    5,
    88,
    99,
    88,
    99,
    88,
    5,
    88,
    99,
    355,
    20,
    355,
    20,
    88,
    5,
    88,
    99,
    88,
    99,
    88,
    5,
    88,
    99,
    355,
    20,
    355,
    20,
    266,
    15,
    266,
    15,
    177,
    10,
    355,
    20,
    355,
    20,
    355,
    20,
    177,
    10,
    177,
    10,
    355,
    20,
    355,
    20,
    355,
    20,
    177,
    10,
    177,
    10,
    355,
    20,
    177,
    10,
    187,
    1,
    712,
    38,
    266,
    15,
    266,
    15,
    177,
    10,
    266,
    15,
    266,
    15,
    177,
    10,
    355,
    20,
    355,
    20,
    88,
    5,
    88,
    5,
    88,
    5,
    88,
    5,
    88,
    5,
    88,
    5,
    88,
    5,
    88,
    5,
    355,
    20,
    355,
    20,
    88,
    5,
    88,
    5,
    88,
    5,
    88,
    5,
    88,
    5,
    88,
    5,
    88,
    5,
    88,
    5,
    355,
    20,
    355,
    20,
    88,
    5,
    88,
    5,
    88,
    5,
    88,
    5,
    88,
    5,
    88,
    5,
    88,
    5,
    88,
    5,
    355,
    20,
    355,
    20,
    266,
    15,
    266,
    15,
    177,
    10,
    355,
    20,
    355,
    20,
    177,
    10,
    88,
    5,
    88,
    5,
    88,
    5,
    88,
    5,
    88,
    5,
    88,
    5,
    355,
    20,
    355,
    20,
    177,
    10,
    88,
    5,
    88,
    5,
    88,
    5,
    88,
    5,
    88,
    5,
    88,
    5,
    355,
    20,
    177,
    10,
    187,
    1,
    712,
    38,
    266,
    15,
    266,
    15,
    177,
    10,
    266,
    15,
    266,
    15,
    177,
    10,
    355,
    20,
    355,
    20,
    177,
    198,
    177,
    198,
    266,
    15,
    266,
    15,
    177,
    10,
    355,
    20,
    93,
    282,
    712,
    413,
    355,
    20,
    355,
    20,
    355,
    20,
    177,
    104,
    177,
    104,
    177,
    10,
    266,
    15,
    445,
    24,
    712,
    38,
    266,
    15,
    266,
    15,
    177,
    10,
    266,
    15,
    88,
    193,
    534,
    29,
    177,
    10,
    177,
    10,
    712,
    38,
    355,
    20,
    355,
    20,
    355,
    20,
    355,
    20,
    355,
    20,
    355,
    20,
    177,
    198,
    177,
    198,
    266,
    15,
    266,
    15,
    177,
    10,
    355,
    20,
    93,
    282,
    355,
    20,
    177,
    10,
    177,
    385,
    355,
    20,
    355,
    20,
    355,
    20,
    266,
    15,
    266,
    15,
    534,
    29,
    355,
    20,
    712,
    38,
    266,
    15,
    266,
    15,
    177,
    10,
    266,
    15,
    88,
    193,
    355,
    20,
    177,
    10,
    177,
    10,
    177,
    10,
    712,
    38,
    355,
    20,
    355,
    20,
    355,
    20,
    355,
    20,
    355,
    20,
    355,
    20,
    712,
    38,
    355,
    20,
    355,
    20,
    712,
    38,
    266,
    15,
    266,
    15,
    890,
    48,
    266,
    15,
    266,
    15,
    890,
    48,
    355,
    20,
    355,
    20,
    712,
    413,
    355,
    20,
    355,
    20,
    355,
    20,
    266,
    15,
    266,
    15,
    890,
    235,
    177,
    10,
    177,
    10,
    177,
    10,
    712,
    38,
    355,
    20,
    355,
    20,
    712,
    38,
    355,
    20,
    355,
    20,
    712,
    38,
    266,
    15,
    266,
    15,
    890,
    48,
    266,
    15,
    266,
    15,
    890,
    48,
    355,
    20,
    355,
    20,
    1068,
    57,
    355,
    20,
    355,
    20,
    355,
    20,
    355,
    20,
    355,
    20,
    1424,
    76,
    712,
    38,
    355,
    20,
    177,
    10,
    187,
    1,
    177,
    10,
    177,
    10,
    177,
    10,
    88,
    5,
    88,
    5,
    177,
    10,
    177,
    10,
    88,
    5,
    88,
    5,
    177,
    10,
    177,
    10,
    88,
    5,
    88,
    5,
    177,
    10,
    177,
    10,
    88,
    5,
    88,
    5,
    177,
    10,
    177,
    10,
    88,
    5,
    88,
    5,
    266,
    15,
    266,
    15,
    177,
    10,
    266,
    15,
    266,
    15,
    177,
    10,
    355,
    20,
    355,
    20,
    355,
    20,
    355,
    20,
    712,
    38,
    712,
    38,
    266,
    15,
    266,
    15,
    177,
    10,
    266,
    15,
    266,
    15,
    88,
    5,
    93,
    1,
    712,
    38,
    355,
    20,
    355,
    20,
    355,
    20,
    355,
    20,
    355,
    20,
    355,
    20,
    187,
    188,
    177,
    10,
    177,
    10,
    355,
    20,
    355,
    20,
    177,
    104,
    177,
    104,
    177,
    10,
    355,
    20,
    355,
    20,
    177,
    104,
    177,
    104,
    177,
    10,
    355,
    20,
    355,
    20,
    355,
    20,
    355,
    20,
    355,
    20,
    177,
    10,
    93,
    1,
    93,
    1,
    534,
    29,
    88,
    5,
    88,
    5,
    623,
    34,
    44,
    3,
    44,
    3,
    177,
    104,
    177,
    104,
    177,
    10,
    266,
    15,
    266,
    15,
    177,
    10,
    712,
    38,
    355,
    20,
    355,
    20,
    355,
    20,
    355,
    20,
    355,
    20,
    355,
    20,
    1068,
    57,
    177,
    10,
    890,
    48,
    355,
    20,
    355,
    20,
    1068,
    57,
    177,
    10,
    355,
    20,
    177,
    10,
    355,
    20,
    355,
    20,
    355,
    20,
    1068,
    57,
    177,
    10,
    712,
    38,
    177,
    10,
    355,
    20,
    177,
    10,
    890,
    48,
    355,
    20,
    177,
    10,
    890,
    48,
    355,
    20,
    355,
    20,
    1068,
    57,
    177,
    10,
    890,
    48,
    355,
    20,
    355,
    20,
    1068,
    57,
    177,
    10,
    355,
    20,
    177,
    10,
    355,
    20,
    355,
    20,
    355,
    20,
    1068,
    57,
    177,
    10,
    355,
    20,
    177,
    10,
    355,
    20,
    355,
    20,
    355,
    20,
    712,
    38,
    177,
    10,
    177,
    10,
    177,
    10,
    177,
    760,
    355,
    20,
    355,
    20,
    1068,
    57,
    177,
    10,
    890,
    48,
    355,
    20,
    355,
    20,
    65,
    66,
    67,
    925,
    2,
    177,
    10,
    355,
    20,
    177,
    10,
    355,
    20,
    355,
    20,
    355,
    20,
    1068,
    57,
    177,
    10,
    712,
    38,
    177,
    10,
    355,
    20,
    177,
    10,
    890,
    48,
    355,
    20,
    177,
    10,
    890,
    48,
    355,
    20,
    355,
    20,
    1068,
    57,
    177,
    10,
    890,
    48,
    355,
    20,
    355,
    20,
    65,
    66,
    67,
    925,
    2,
    177,
    10,
    355,
    20,
    177,
    10,
    355,
    20,
    355,
    20,
    355,
    20,
    1068,
    57,
    177,
    10,
    355,
    20,
    177,
    10,
    355,
    20,
    355,
    20,
    355,
    20,
    2137,
    113,
    355,
    20,
    355,
    20,
    177,
    198,
    177,
    198,
    266,
    15,
    266,
    15,
    177,
    10,
    355,
    20,
    93,
    282,
    712,
    413,
    355,
    20,
    355,
    20,
    355,
    20,
    177,
    104,
    177,
    104,
    177,
    10,
    266,
    15,
    445,
    24,
    712,
    38,
    266,
    15,
    266,
    15,
    177,
    10,
    266,
    15,
    88,
    193,
    534,
    29,
    177,
    10,
    177,
    10,
    712,
    38,
    355,
    20,
    355,
    20,
    355,
    20,
    355,
    20,
    355,
    20,
    355,
    20,
    177,
    198,
    177,
    198,
    266,
    15,
    266,
    15,
    177,
    10,
    355,
    20,
    177,
    198,
    355,
    20,
    177,
    10,
    177,
    385,
    355,
    20,
    355,
    20,
    355,
    20,
    266,
    15,
    266,
    15,
    534,
    29,
    355,
    20,
    712,
    38,
    266,
    15,
    266,
    15,
    177,
    10,
    266,
    15,
    88,
    193,
    355,
    20,
    177,
    10,
    177,
    10,
    177,
    10,
    712,
    38,
    355,
    20,
    355,
    20,
    355,
    20,
    355,
    20,
    355,
    20,
    355,
    20,
    712,
    38,
    355,
    20,
    355,
    20,
    712,
    38,
    266,
    15,
    266,
    15,
    890,
    48,
    266,
    15,
    266,
    15,
    890,
    48,
    355,
    20,
    355,
    20,
    712,
    413,
    355,
    20,
    355,
    20,
    355,
    20,
    266,
    15,
    266,
    15,
    890,
    235,
    177,
    10,
    177,
    10,
    177,
    10,
    712,
    38,
    355,
    20,
    355,
    20,
    712,
    38,
    355,
    20,
    355,
    20,
    712,
    38,
    266,
    15,
    266,
    15,
    890,
    48,
    266,
    15,
    266,
    15,
    890,
    48,
    355,
    20,
    355,
    20,
    1068,
    57,
    355,
    20,
    355,
    20,
    355,
    20,
    355,
    20,
    355,
    20,
    1068,
    57,
    355,
    20,
    455,
    26,
    474,
    26,
    474,
    26,
    474,
    39,
    2848
};

// The total number of notes in the melody (must match the lengths of both arrays)
const int melody_length = sizeof(melody) / sizeof(melody[0]);