/*************************************************
 * GENERATED FROM: night_of_knights.mid
 * DO NOT EDIT THIS FILE MANUALLY
 *
 * This file contains the C-arrays for the melody pitch and duration.
 * It is designed for use with the Arduino tone() function or ESP32 LEDC.
 * The pitches (e.g., NOTE_C4) are defined in 'pitches.h'.
 *************************************************/
#pragma once
#include "pitches.h"

// The notes array (pitch macro names from pitches.h)
// PROGMEM is used to store the data in Flash memory on Uno/Nano.
const int melody[] PROGMEM = {
    NOTE_D3,
    NOTE_A3,
    NOTE_G3,
    NOTE_A3,
    NOTE_E3,
    NOTE_F3,
    NOTE_A3,
    NOTE_G3,
    NOTE_F3,
    NOTE_E3,
    NOTE_D3,
    NOTE_D3,
    NOTE_A3,
    NOTE_G3,
    NOTE_A3,
    NOTE_E3,
    NOTE_F3,
    NOTE_A3,
    NOTE_C3,
    NOTE_CS3,
    NOTE_D3,
    NOTE_A3,
    NOTE_G3,
    NOTE_A3,
    NOTE_E3,
    NOTE_F3,
    NOTE_A3,
    NOTE_G3,
    NOTE_F3,
    NOTE_E3,
    NOTE_D3,
    NOTE_D3,
    NOTE_A3,
    NOTE_G3,
    NOTE_A3,
    NOTE_E3,
    NOTE_F3,
    NOTE_A3,
    NOTE_C3,
    NOTE_CS3,
    NOTE_D3,
    NOTE_A3,
    NOTE_G3,
    NOTE_A3,
    NOTE_E3,
    NOTE_F3,
    NOTE_A3,
    NOTE_G3,
    NOTE_F3,
    NOTE_E3,
    NOTE_D3,
    NOTE_D3,
    NOTE_A3,
    NOTE_G3,
    NOTE_A3,
    NOTE_E3,
    NOTE_F3,
    NOTE_A3,
    NOTE_C3,
    NOTE_CS3,
    NOTE_D3,
    NOTE_A3,
    NOTE_G3,
    NOTE_A3,
    NOTE_E3,
    NOTE_F3,
    NOTE_A3,
    NOTE_G3,
    NOTE_F3,
    NOTE_E3,
    NOTE_D3,
    NOTE_F3,
    NOTE_A3,
    NOTE_G3,
    NOTE_A3,
    NOTE_C4,
    NOTE_C4,
    NOTE_A3,
    NOTE_E4,
    NOTE_C4,
    NOTE_CS4,
    NOTE_D4,
    NOTE_A4,
    NOTE_G4,
    NOTE_A4,
    NOTE_E4,
    NOTE_F4,
    NOTE_A4,
    NOTE_G4,
    NOTE_F4,
    NOTE_E4,
    NOTE_D4,
    NOTE_D4,
    NOTE_A4,
    NOTE_G4,
    NOTE_A4,
    NOTE_E4,
    NOTE_F4,
    NOTE_A4,
    NOTE_C4,
    NOTE_CS4,
    NOTE_D4,
    NOTE_A4,
    NOTE_G4,
    NOTE_A4,
    NOTE_E4,
    NOTE_F4,
    NOTE_A4,
    NOTE_G4,
    NOTE_F4,
    NOTE_E4,
    NOTE_D4,
    NOTE_D4,
    NOTE_A4,
    NOTE_G4,
    NOTE_A4,
    NOTE_E4,
    NOTE_F4,
    NOTE_A4,
    NOTE_C4,
    NOTE_CS4,
    NOTE_D4,
    NOTE_A4,
    NOTE_G4,
    NOTE_A4,
    NOTE_E4,
    NOTE_F4,
    NOTE_A4,
    NOTE_G4,
    NOTE_F4,
    NOTE_E4,
    NOTE_D4,
    NOTE_D4,
    NOTE_A4,
    NOTE_G4,
    NOTE_A4,
    NOTE_E4,
    NOTE_F4,
    NOTE_A4,
    NOTE_C4,
    NOTE_CS4,
    NOTE_D4,
    NOTE_A4,
    NOTE_G4,
    NOTE_A4,
    NOTE_E4,
    NOTE_F4,
    NOTE_A4,
    NOTE_G4,
    NOTE_F4,
    NOTE_E4,
    NOTE_D4,
    NOTE_D4,
    NOTE_A4,
    NOTE_G4,
    NOTE_A4,
    NOTE_C5,
    NOTE_D5,
    NOTE_F5,
    NOTE_E5,
    NOTE_D5,
    NOTE_C5,
    NOTE_A4,
    NOTE_F5,
    NOTE_E5,
    NOTE_F5,
    NOTE_E5,
    NOTE_G5,
    NOTE_F5,
    NOTE_E5,
    NOTE_F5,
    NOTE_E5,
    NOTE_C5,
    NOTE_D5,
    NOTE_A5,
    NOTE_G5,
    NOTE_A5,
    NOTE_G5,
    NOTE_A5,
    NOTE_C6,
    NOTE_A5,
    NOTE_G5,
    NOTE_A5,
    NOTE_A4,
    NOTE_F5,
    NOTE_E5,
    NOTE_F5,
    NOTE_E5,
    NOTE_G5,
    NOTE_F5,
    NOTE_E5,
    NOTE_F5,
    NOTE_E5,
    NOTE_C5,
    NOTE_D5,
    NOTE_A5,
    NOTE_G5,
    NOTE_A5,
    NOTE_G5,
    NOTE_A5,
    NOTE_CS6,
    NOTE_A5,
    NOTE_G5,
    NOTE_A5,
    NOTE_A4,
    NOTE_F5,
    NOTE_E5,
    NOTE_F5,
    NOTE_E5,
    NOTE_G5,
    NOTE_F5,
    NOTE_E5,
    NOTE_F5,
    NOTE_E5,
    NOTE_C5,
    NOTE_D5,
    NOTE_A5,
    NOTE_G5,
    NOTE_A5,
    NOTE_G5,
    NOTE_A5,
    NOTE_C6,
    NOTE_A5,
    NOTE_F5,
    NOTE_FS5,
    NOTE_G5,
    NOTE_G5,
    NOTE_G5,
    NOTE_G5,
    NOTE_G5,
    NOTE_A5,
    NOTE_A5,
    NOTE_A5,
    NOTE_A5,
    NOTE_A5,
    NOTE_AS5,
    NOTE_AS5,
    NOTE_AS5,
    NOTE_B5,
    NOTE_B5,
    NOTE_C6,
    NOTE_A4,
    NOTE_F5,
    NOTE_E5,
    NOTE_F5,
    NOTE_E5,
    NOTE_G5,
    NOTE_F5,
    NOTE_E5,
    NOTE_F5,
    NOTE_E5,
    NOTE_C5,
    NOTE_D5,
    NOTE_A5,
    NOTE_G5,
    NOTE_A5,
    NOTE_G5,
    NOTE_A5,
    NOTE_C6,
    NOTE_A5,
    NOTE_G5,
    NOTE_A5,
    NOTE_A4,
    NOTE_F5,
    NOTE_E5,
    NOTE_F5,
    NOTE_E5,
    NOTE_G5,
    NOTE_F5,
    NOTE_E5,
    NOTE_F5,
    NOTE_E5,
    NOTE_C5,
    NOTE_D5,
    NOTE_A5,
    NOTE_G5,
    NOTE_A5,
    NOTE_G5,
    NOTE_A5,
    NOTE_CS6,
    NOTE_A5,
    NOTE_G5,
    NOTE_A5,
    NOTE_A4,
    NOTE_F5,
    NOTE_E5,
    NOTE_F5,
    NOTE_E5,
    NOTE_G5,
    NOTE_F5,
    NOTE_E5,
    NOTE_F5,
    NOTE_E5,
    NOTE_C5,
    NOTE_D5,
    NOTE_A5,
    NOTE_G5,
    NOTE_A5,
    NOTE_G5,
    NOTE_A5,
    NOTE_C6,
    NOTE_A5,
    NOTE_F5,
    NOTE_FS5,
    NOTE_G5,
    NOTE_G5,
    NOTE_G5,
    NOTE_G5,
    NOTE_G5,
    NOTE_A5,
    NOTE_G5,
    NOTE_F5,
    NOTE_E5,
    NOTE_D5,
    NOTE_A3,
    NOTE_F4,
    NOTE_E4,
    NOTE_F4,
    NOTE_E4,
    NOTE_G4,
    NOTE_F4,
    NOTE_E4,
    NOTE_F4,
    NOTE_E4,
    NOTE_C4,
    NOTE_D4,
    NOTE_A4,
    NOTE_G4,
    NOTE_A4,
    NOTE_G4,
    NOTE_A4,
    NOTE_C5,
    NOTE_A4,
    NOTE_G4,
    NOTE_A4,
    NOTE_A3,
    NOTE_F4,
    NOTE_E4,
    NOTE_F4,
    NOTE_E4,
    NOTE_G4,
    NOTE_F4,
    NOTE_E4,
    NOTE_F4,
    NOTE_E4,
    NOTE_C4,
    NOTE_D4,
    NOTE_A4,
    NOTE_G4,
    NOTE_A4,
    NOTE_G4,
    NOTE_A4,
    NOTE_C5,
    NOTE_A4,
    NOTE_G4,
    NOTE_E4,
    NOTE_F4,
    NOTE_E4,
    NOTE_F4,
    NOTE_E4,
    NOTE_C4,
    NOTE_D4,
    NOTE_C4,
    NOTE_A3,
    NOTE_G3,
    NOTE_E3,
    NOTE_D3,
    NOTE_E3,
    NOTE_F3,
    NOTE_G3,
    NOTE_A3,
    NOTE_CS4,
    NOTE_D4,
    NOTE_E4,
    NOTE_CS4,
    NOTE_A4,
    NOTE_G4,
    NOTE_A4,
    NOTE_G4,
    NOTE_CS5,
    NOTE_A4,
    NOTE_G4,
    NOTE_A4,
    NOTE_G4,
    NOTE_CS4,
    NOTE_CS5,
    NOTE_A4,
    NOTE_CS5,
    NOTE_A4,
    NOTE_CS5,
    NOTE_E5,
    NOTE_E5,
    NOTE_CS5,
    NOTE_A4,
    NOTE_E4,
    NOTE_F4,
    NOTE_F4,
    NOTE_E4,
    NOTE_F4,
    NOTE_E4,
    NOTE_G4,
    NOTE_F4,
    NOTE_E4,
    NOTE_F4,
    NOTE_E4,
    NOTE_C4,
    NOTE_D4,
    NOTE_A4,
    NOTE_G4,
    NOTE_A4,
    NOTE_G4,
    NOTE_A4,
    NOTE_C5,
    NOTE_A4,
    NOTE_G4,
    NOTE_A4,
    NOTE_A3,
    NOTE_F4,
    NOTE_E4,
    NOTE_F4,
    NOTE_E4,
    NOTE_G4,
    NOTE_F4,
    NOTE_E4,
    NOTE_F4,
    NOTE_E4,
    NOTE_C4,
    NOTE_D4,
    NOTE_A4,
    NOTE_G4,
    NOTE_A4,
    NOTE_G4,
    NOTE_A4,
    NOTE_C5,
    NOTE_A4,
    NOTE_G4,
    NOTE_E4,
    NOTE_F4,
    NOTE_E4,
    NOTE_F4,
    NOTE_E4,
    NOTE_C4,
    NOTE_D4,
    NOTE_C4,
    NOTE_A3,
    NOTE_G3,
    NOTE_E3,
    NOTE_D3,
    NOTE_E3,
    NOTE_F3,
    NOTE_G3,
    NOTE_A3,
    NOTE_CS4,
    NOTE_D4,
    NOTE_E4,
    NOTE_CS4,
    NOTE_A4,
    NOTE_G4,
    NOTE_A4,
    NOTE_G4,
    NOTE_A4,
    NOTE_CS5,
    NOTE_A4,
    NOTE_G4,
    NOTE_A4,
    NOTE_G4,
    NOTE_CS4,
    NOTE_CS5,
    NOTE_A4,
    NOTE_CS5,
    NOTE_A4,
    NOTE_CS5,
    NOTE_E5,
    NOTE_G5,
    NOTE_A5,
    NOTE_D5,
    NOTE_F5,
    NOTE_E5,
    NOTE_D5,
    NOTE_C5,
    NOTE_C5,
    NOTE_A5,
    NOTE_E5,
    NOTE_C5,
    NOTE_CS5,
    NOTE_D5,
    NOTE_F5,
    NOTE_E5,
    NOTE_D5,
    NOTE_C5,
    NOTE_C5,
    NOTE_A5,
    NOTE_E5,
    NOTE_D5,
    NOTE_C5,
    NOTE_D5,
    NOTE_F5,
    NOTE_E5,
    NOTE_D5,
    NOTE_C5,
    NOTE_C5,
    NOTE_A5,
    NOTE_E5,
    NOTE_C5,
    NOTE_CS5,
    NOTE_D5,
    NOTE_F5,
    NOTE_E5,
    NOTE_F5,
    NOTE_G5,
    NOTE_G5,
    NOTE_F5,
    NOTE_E5,
    NOTE_C5,
    NOTE_CS5,
    NOTE_F5,
    NOTE_A5,
    NOTE_G5,
    NOTE_F5,
    NOTE_E5,
    NOTE_C6,
    NOTE_G5,
    NOTE_E5,
    NOTE_E5,
    NOTE_F5,
    NOTE_A5,
    NOTE_G5,
    NOTE_A5,
    NOTE_AS5,
    NOTE_A5,
    NOTE_G5,
    NOTE_E5,
    NOTE_D5,
    NOTE_F5,
    NOTE_E5,
    NOTE_D5,
    NOTE_D5,
    NOTE_D5,
    NOTE_AS5,
    NOTE_A5,
    NOTE_G5,
    NOTE_GS5,
    NOTE_A5,
    NOTE_A5,
    NOTE_E5,
    NOTE_A5,
    NOTE_A5,
    NOTE_B5,
    NOTE_B4,
    NOTE_B5,
    NOTE_CS6,
    NOTE_CS6,
    NOTE_D6,
    NOTE_E6,
    NOTE_A4,
    NOTE_F5,
    NOTE_E5,
    NOTE_F5,
    NOTE_E5,
    NOTE_G5,
    NOTE_F5,
    NOTE_E5,
    NOTE_F5,
    NOTE_E5,
    NOTE_C5,
    NOTE_D5,
    NOTE_A5,
    NOTE_G5,
    NOTE_A5,
    NOTE_G5,
    NOTE_A5,
    NOTE_C6,
    NOTE_A5,
    NOTE_G5,
    NOTE_A5,
    NOTE_A4,
    NOTE_F5,
    NOTE_E5,
    NOTE_F5,
    NOTE_E5,
    NOTE_G5,
    NOTE_F5,
    NOTE_E5,
    NOTE_F5,
    NOTE_E5,
    NOTE_C5,
    NOTE_D5,
    NOTE_A5,
    NOTE_G5,
    NOTE_A5,
    NOTE_G5,
    NOTE_A5,
    NOTE_CS6,
    NOTE_A5,
    NOTE_G5,
    NOTE_A5,
    NOTE_A4,
    NOTE_F5,
    NOTE_E5,
    NOTE_F5,
    NOTE_E5,
    NOTE_G5,
    NOTE_F5,
    NOTE_E5,
    NOTE_F5,
    NOTE_E5,
    NOTE_C5,
    NOTE_D5,
    NOTE_A5,
    NOTE_G5,
    NOTE_A5,
    NOTE_G5,
    NOTE_A5,
    NOTE_C6,
    NOTE_A5,
    NOTE_F5,
    NOTE_FS5,
    NOTE_G5,
    NOTE_AS4,
    NOTE_D5,
    NOTE_G5,
    NOTE_G5,
    NOTE_A5,
    NOTE_A5,
    NOTE_E5,
    NOTE_A5,
    NOTE_A5,
    NOTE_AS5,
    NOTE_AS5,
    NOTE_AS5,
    NOTE_B5,
    NOTE_B5,
    NOTE_C6,
    NOTE_A4,
    NOTE_F5,
    NOTE_E5,
    NOTE_F5,
    NOTE_E5,
    NOTE_G5,
    NOTE_F5,
    NOTE_E5,
    NOTE_F5,
    NOTE_E5,
    NOTE_C5,
    NOTE_D5,
    NOTE_A5,
    NOTE_G5,
    NOTE_A5,
    NOTE_G5,
    NOTE_A5,
    NOTE_C6,
    NOTE_A5,
    NOTE_G5,
    NOTE_A5,
    NOTE_A4,
    NOTE_F5,
    NOTE_E5,
    NOTE_F5,
    NOTE_E5,
    NOTE_G5,
    NOTE_F5,
    NOTE_E5,
    NOTE_F5,
    NOTE_E5,
    NOTE_C5,
    NOTE_D5,
    NOTE_A5,
    NOTE_G5,
    NOTE_A5,
    NOTE_G5,
    NOTE_A5,
    NOTE_CS6,
    NOTE_A5,
    NOTE_G5,
    NOTE_A5,
    NOTE_A4,
    NOTE_F5,
    NOTE_E5,
    NOTE_F5,
    NOTE_E5,
    NOTE_G5,
    NOTE_F5,
    NOTE_E5,
    NOTE_F5,
    NOTE_E5,
    NOTE_C5,
    NOTE_D5,
    NOTE_A5,
    NOTE_G5,
    NOTE_A5,
    NOTE_G5,
    NOTE_A5,
    NOTE_C6,
    NOTE_A5,
    NOTE_F5,
    NOTE_FS5,
    NOTE_G5,
    NOTE_G5,
    NOTE_G5,
    NOTE_G5,
    NOTE_G5,
    NOTE_A5,
    NOTE_G5,
    NOTE_F5,
    NOTE_E5,
    NOTE_D5,
    NOTE_D3,
    NOTE_A3,
    NOTE_G3,
    NOTE_A3,
    NOTE_E3,
    NOTE_F3,
    NOTE_A3,
    NOTE_G3,
    NOTE_F3,
    NOTE_E3,
    NOTE_D3,
    NOTE_D3,
    NOTE_A3,
    NOTE_G3,
    NOTE_A3,
    NOTE_E3,
    NOTE_F3,
    NOTE_A3,
    NOTE_C3,
    NOTE_CS3,
    NOTE_D3,
    NOTE_A3,
    NOTE_G3,
    NOTE_A3,
    NOTE_E3,
    NOTE_F3,
    NOTE_A3,
    NOTE_G3,
    NOTE_F3,
    NOTE_E3,
    NOTE_D3,
    NOTE_D3,
    NOTE_A3,
    NOTE_G3,
    NOTE_A3,
    NOTE_E3,
    NOTE_F3,
    NOTE_A3,
    NOTE_C3,
    NOTE_CS3,
    NOTE_D3,
    NOTE_A3,
    NOTE_G3,
    NOTE_A3,
    NOTE_E3,
    NOTE_F3,
    NOTE_A3,
    NOTE_G3,
    NOTE_F3,
    NOTE_E3,
    NOTE_D3,
    NOTE_D3,
    NOTE_A3,
    NOTE_G3,
    NOTE_A3,
    NOTE_E3,
    NOTE_F3,
    NOTE_A3,
    NOTE_C3,
    NOTE_CS3,
    NOTE_D3,
    NOTE_A3,
    NOTE_G3,
    NOTE_A3,
    NOTE_E3,
    NOTE_F3,
    NOTE_A3,
    NOTE_G3,
    NOTE_F3,
    NOTE_E3,
    NOTE_D3,
    NOTE_D3,
    NOTE_A3,
    NOTE_G3,
    NOTE_A3,
    NOTE_C4,
    NOTE_C4,
    NOTE_A3,
    NOTE_E4,
    NOTE_C4,
    NOTE_CS4,
    NOTE_D4,
    NOTE_A4,
    NOTE_G4,
    NOTE_A4,
    NOTE_E4,
    NOTE_F4,
    NOTE_A4,
    NOTE_G4,
    NOTE_F4,
    NOTE_E4,
    NOTE_D4,
    NOTE_D4,
    NOTE_A4,
    NOTE_G4,
    NOTE_A4,
    NOTE_E4,
    NOTE_F4,
    NOTE_A4,
    NOTE_C4,
    NOTE_CS4,
    NOTE_D4,
    NOTE_A4,
    NOTE_G4,
    NOTE_A4,
    NOTE_E4,
    NOTE_F4,
    NOTE_A4,
    NOTE_G4,
    NOTE_F4,
    NOTE_E4,
    NOTE_D4,
    NOTE_D4,
    NOTE_A4,
    NOTE_G4,
    NOTE_A4,
    NOTE_E4,
    NOTE_F4,
    NOTE_A4,
    NOTE_C4,
    NOTE_CS4,
    NOTE_D4,
    NOTE_A4,
    NOTE_G4,
    NOTE_A4,
    NOTE_E4,
    NOTE_F4,
    NOTE_A4,
    NOTE_G4,
    NOTE_F4,
    NOTE_E4,
    NOTE_D4,
    NOTE_D4,
    NOTE_A4,
    NOTE_G4,
    NOTE_A4,
    NOTE_E4,
    NOTE_F4,
    NOTE_A4,
    NOTE_C4,
    NOTE_CS4,
    NOTE_D4,
    NOTE_A4,
    NOTE_G4,
    NOTE_A4,
    NOTE_E4,
    NOTE_F4,
    NOTE_A4,
    NOTE_G4,
    NOTE_F4,
    NOTE_E4,
    NOTE_D4,
    NOTE_D4,
    NOTE_A4,
    NOTE_G4,
    NOTE_A4,
    NOTE_C5,
    NOTE_D5,
    NOTE_F5,
    NOTE_E5,
    NOTE_D5,
    NOTE_C5,
    NOTE_A4,
    NOTE_F5,
    NOTE_E5,
    NOTE_F5,
    NOTE_E5,
    NOTE_G5,
    NOTE_F5,
    NOTE_E5,
    NOTE_F5,
    NOTE_E5,
    NOTE_C5,
    NOTE_D5,
    NOTE_A5,
    NOTE_G5,
    NOTE_A5,
    NOTE_G5,
    NOTE_A5,
    NOTE_C6,
    NOTE_A5,
    NOTE_G5,
    NOTE_A5,
    NOTE_A4,
    NOTE_F5,
    NOTE_E5,
    NOTE_F5,
    NOTE_E5,
    NOTE_G5,
    NOTE_F5,
    NOTE_E5,
    NOTE_F5,
    NOTE_E5,
    NOTE_C5,
    NOTE_D5,
    NOTE_A5,
    NOTE_G5,
    NOTE_A5,
    NOTE_G5,
    NOTE_A5,
    NOTE_CS6,
    NOTE_A5,
    NOTE_G5,
    NOTE_A5,
    NOTE_A4,
    NOTE_F5,
    NOTE_E5,
    NOTE_F5,
    NOTE_E5,
    NOTE_G5,
    NOTE_F5,
    NOTE_E5,
    NOTE_F5,
    NOTE_E5,
    NOTE_C5,
    NOTE_D5,
    NOTE_A5,
    NOTE_G5,
    NOTE_A5,
    NOTE_G5,
    NOTE_A5,
    NOTE_C6,
    NOTE_A5,
    NOTE_F5,
    NOTE_FS5,
    NOTE_G5,
    NOTE_G5,
    NOTE_G5,
    NOTE_G5,
    NOTE_G5,
    NOTE_A5,
    NOTE_A5,
    NOTE_A5,
    NOTE_A5,
    NOTE_A5,
    NOTE_AS5,
    NOTE_AS5,
    NOTE_AS5,
    NOTE_B5,
    NOTE_B5,
    NOTE_C6,
    NOTE_A4,
    NOTE_F5,
    NOTE_E5,
    NOTE_F5,
    NOTE_E5,
    NOTE_G5,
    NOTE_F5,
    NOTE_E5,
    NOTE_F5,
    NOTE_E5,
    NOTE_C5,
    NOTE_D5,
    NOTE_A5,
    NOTE_G5,
    NOTE_A5,
    NOTE_G5,
    NOTE_A5,
    NOTE_C6,
    NOTE_A5,
    NOTE_G5,
    NOTE_A5,
    NOTE_A4,
    NOTE_F5,
    NOTE_E5,
    NOTE_F5,
    NOTE_E5,
    NOTE_G5,
    NOTE_F5,
    NOTE_E5,
    NOTE_F5,
    NOTE_E5,
    NOTE_C5,
    NOTE_D5,
    NOTE_A5,
    NOTE_G5,
    NOTE_A5,
    NOTE_G5,
    NOTE_A5,
    NOTE_CS6,
    NOTE_A5,
    NOTE_G5,
    NOTE_A5,
    NOTE_A4,
    NOTE_F5,
    NOTE_E5,
    NOTE_F5,
    NOTE_E5,
    NOTE_G5,
    NOTE_F5,
    NOTE_E5,
    NOTE_F5,
    NOTE_E5,
    NOTE_C5,
    NOTE_D5,
    NOTE_A5,
    NOTE_G5,
    NOTE_A5,
    NOTE_G5,
    NOTE_A5,
    NOTE_C6,
    NOTE_A5,
    NOTE_F5,
    NOTE_FS5,
    NOTE_G5,
    NOTE_G5,
    NOTE_G5,
    NOTE_G5,
    NOTE_G5,
    NOTE_A5,
    NOTE_A5,
    NOTE_A5,
    NOTE_A5,
    NOTE_A5,
    NOTE_AS5,
    NOTE_AS5,
    NOTE_F6,
    NOTE_E6,
    NOTE_D6,
    NOTE_E6,
    NOTE_AS4,
    NOTE_FS5,
    NOTE_F5,
    NOTE_FS5,
    NOTE_F5,
    NOTE_FS5,
    NOTE_GS5,
    NOTE_FS5,
    NOTE_F5,
    NOTE_FS5,
    NOTE_F5,
    NOTE_CS5,
    NOTE_DS5,
    NOTE_AS5,
    NOTE_GS5,
    NOTE_AS5,
    NOTE_GS5,
    NOTE_AS5,
    NOTE_CS6,
    NOTE_AS5,
    NOTE_GS5,
    NOTE_AS5,
    NOTE_AS4,
    NOTE_FS5,
    NOTE_F5,
    NOTE_FS5,
    NOTE_F5,
    NOTE_FS5,
    NOTE_GS5,
    NOTE_FS5,
    NOTE_F5,
    NOTE_FS5,
    NOTE_F5,
    NOTE_CS5,
    NOTE_DS5,
    NOTE_AS5,
    NOTE_GS5,
    NOTE_AS5,
    NOTE_GS5,
    NOTE_AS5,
    NOTE_D6,
    NOTE_AS5,
    NOTE_GS5,
    NOTE_AS5,
    NOTE_AS4,
    NOTE_FS5,
    NOTE_F5,
    NOTE_FS5,
    NOTE_F5,
    NOTE_FS5,
    NOTE_GS5,
    NOTE_FS5,
    NOTE_F5,
    NOTE_FS5,
    NOTE_F5,
    NOTE_CS5,
    NOTE_DS5,
    NOTE_AS5,
    NOTE_GS5,
    NOTE_AS5,
    NOTE_GS5,
    NOTE_AS5,
    NOTE_CS6,
    NOTE_AS5,
    NOTE_FS5,
    NOTE_G5,
    NOTE_GS5,
    NOTE_GS5,
    NOTE_GS5,
    NOTE_GS5,
    NOTE_GS5,
    NOTE_AS5,
    NOTE_AS5,
    NOTE_AS5,
    NOTE_AS5,
    NOTE_AS5,
    NOTE_B5,
    NOTE_B5,
    NOTE_B5,
    NOTE_C6,
    NOTE_C6,
    NOTE_CS6,
    NOTE_AS4,
    NOTE_FS5,
    NOTE_F5,
    NOTE_FS5,
    NOTE_F5,
    NOTE_FS5,
    NOTE_GS5,
    NOTE_FS5,
    NOTE_F5,
    NOTE_FS5,
    NOTE_F5,
    NOTE_CS5,
    NOTE_DS5,
    NOTE_AS5,
    NOTE_GS5,
    NOTE_AS5,
    NOTE_GS5,
    NOTE_AS5,
    NOTE_CS6,
    NOTE_AS5,
    NOTE_GS5,
    NOTE_AS5,
    NOTE_AS4,
    NOTE_FS5,
    NOTE_F5,
    NOTE_FS5,
    NOTE_F5,
    NOTE_FS5,
    NOTE_GS5,
    NOTE_FS5,
    NOTE_F5,
    NOTE_FS5,
    NOTE_F5,
    NOTE_CS5,
    NOTE_DS5,
    NOTE_AS5,
    NOTE_GS5,
    NOTE_AS5,
    NOTE_GS5,
    NOTE_AS5,
    NOTE_D6,
    NOTE_AS5,
    NOTE_D6,
    NOTE_F6,
    NOTE_DS6,
    NOTE_DS6,
    NOTE_DS6,
    NOTE_DS6,
    NOTE_CS6,
    NOTE_CS6,
    NOTE_DS6,
    NOTE_DS6,
    NOTE_CS6,
    NOTE_CS6,
    NOTE_DS6,
    NOTE_AS5,
    NOTE_CS6,
    NOTE_AS5,
    NOTE_GS5,
    NOTE_AS5,
    NOTE_GS5,
    NOTE_GS5,
    NOTE_GS5,
    NOTE_GS5,
    NOTE_GS5,
    NOTE_AS5,
    NOTE_FS6,
    NOTE_FS6,
    NOTE_F6,
    NOTE_CS6,
    NOTE_DS6,
    NOTE_AS4,
    NOTE_FS5,
    NOTE_F5,
    NOTE_FS5,
    NOTE_GS5,
    NOTE_FS5,
    NOTE_F5,
    NOTE_CS5,
    NOTE_D5,
    NOTE_DS5,
    NOTE_AS5,
    NOTE_GS5,
    NOTE_AS5,
    NOTE_CS6,
    NOTE_B5,
    NOTE_AS5,
    NOTE_GS5,
    NOTE_FS5,
    NOTE_F5,
    NOTE_FS5,
    NOTE_GS5,
    NOTE_FS5,
    NOTE_F5,
    NOTE_CS5,
    NOTE_D5,
    NOTE_DS5,
    NOTE_CS5,
    NOTE_F5,
    NOTE_FS5,
    NOTE_CS5,
    NOTE_GS5,
    NOTE_AS5,
    NOTE_CS6,
    NOTE_DS6,
    NOTE_FS6,
    NOTE_F6,
    NOTE_DS6,
    NOTE_CS6,
    NOTE_DS6,
    NOTE_FS6,
    NOTE_F6,
    NOTE_DS6,
    NOTE_DS6,
    NOTE_DS6,
    NOTE_AS6,
    NOTE_GS6,
    NOTE_FS6,
    NOTE_F6,
    NOTE_FS6,
    NOTE_FS6,
    NOTE_F6,
    NOTE_DS6,
    NOTE_F6,
    NOTE_FS6,
    NOTE_F6,
    NOTE_DS6,
    NOTE_F6,
    NOTE_FS6
};

// The duration array in milliseconds (ms)
const int durations[] PROGMEM = {
    83,
    83,
    83,
    83,
    83,
    83,
    83,
    83,
    83,
    83,
    83,
    83,
    83,
    83,
    83,
    83,
    83,
    83,
    83,
    83,
    83,
    83,
    83,
    83,
    83,
    83,
    83,
    83,
    83,
    83,
    83,
    83,
    83,
    83,
    83,
    83,
    83,
    83,
    83,
    83,
    83,
    83,
    83,
    83,
    83,
    83,
    83,
    83,
    83,
    83,
    83,
    83,
    83,
    83,
    83,
    83,
    83,
    83,
    83,
    83,
    83,
    83,
    83,
    83,
    83,
    83,
    83,
    83,
    83,
    83,
    83,
    83,
    83,
    83,
    83,
    83,
    83,
    83,
    83,
    83,
    83,
    83,
    83,
    83,
    83,
    83,
    83,
    83,
    83,
    83,
    83,
    83,
    83,
    83,
    83,
    83,
    83,
    83,
    83,
    83,
    83,
    83,
    83,
    83,
    83,
    83,
    83,
    83,
    83,
    83,
    83,
    83,
    83,
    83,
    83,
    83,
    83,
    83,
    83,
    83,
    83,
    83,
    83,
    83,
    83,
    83,
    83,
    83,
    83,
    83,
    83,
    83,
    83,
    83,
    83,
    83,
    83,
    83,
    83,
    83,
    83,
    83,
    83,
    83,
    83,
    83,
    83,
    83,
    83,
    83,
    83,
    83,
    83,
    83,
    83,
    83,
    83,
    83,
    83,
    83,
    83,
    83,
    83,
    83,
    83,
    83,
    83,
    83,
    83,
    83,
    83,
    83,
    83,
    83,
    83,
    83,
    83,
    83,
    83,
    83,
    83,
    83,
    83,
    83,
    83,
    83,
    83,
    83,
    83,
    83,
    83,
    83,
    83,
    83,
    83,
    83,
    83,
    83,
    83,
    83,
    83,
    83,
    83,
    83,
    83,
    83,
    83,
    83,
    83,
    83,
    83,
    83,
    83,
    83,
    83,
    83,
    83,
    83,
    83,
    83,
    83,
    83,
    83,
    83,
    83,
    83,
    83,
    83,
    83,
    83,
    83,
    83,
    83,
    83,
    83,
    83,
    83,
    83,
    83,
    83,
    166,
    83,
    83,
    83,
    83,
    83,
    83,
    83,
    83,
    83,
    83,
    83,
    83,
    83,
    83,
    83,
    83,
    83,
    83,
    83,
    83,
    83,
    83,
    83,
    83,
    83,
    83,
    83,
    83,
    83,
    83,
    83,
    83,
    83,
    83,
    83,
    83,
    83,
    83,
    83,
    83,
    83,
    83,
    83,
    83,
    83,
    83,
    83,
    83,
    83,
    83,
    83,
    83,
    83,
    83,
    83,
    83,
    83,
    83,
    83,
    83,
    83,
    83,
    83,
    83,
    83,
    83,
    83,
    83,
    83,
    83,
    83,
    83,
    166,
    83,
    83,
    83,
    83,
    83,
    83,
    83,
    83,
    83,
    83,
    83,
    83,
    83,
    83,
    83,
    83,
    83,
    83,
    83,
    83,
    83,
    83,
    83,
    83,
    83,
    83,
    83,
    83,
    83,
    83,
    83,
    83,
    83,
    83,
    83,
    83,
    83,
    83,
    83,
    83,
    83,
    83,
    83,
    83,
    83,
    83,
    83,
    83,
    83,
    83,
    83,
    83,
    83,
    83,
    83,
    83,
    83,
    83,
    83,
    83,
    83,
    83,
    83,
    83,
    83,
    83,
    83,
    83,
    83,
    83,
    83,
    83,
    83,
    83,
    83,
    83,
    83,
    83,
    83,
    83,
    83,
    83,
    83,
    83,
    83,
    83,
    83,
    83,
    83,
    83,
    83,
    83,
    83,
    83,
    83,
    83,
    83,
    83,
    83,
    83,
    83,
    83,
    83,
    83,
    83,
    83,
    83,
    83,
    83,
    83,
    83,
    83,
    83,
    83,
    83,
    83,
    83,
    83,
    83,
    83,
    83,
    83,
    83,
    83,
    83,
    83,
    83,
    83,
    83,
    83,
    83,
    83,
    83,
    83,
    83,
    83,
    83,
    83,
    83,
    83,
    83,
    83,
    83,
    83,
    83,
    83,
    83,
    83,
    83,
    83,
    83,
    83,
    83,
    83,
    83,
    83,
    83,
    83,
    83,
    83,
    166,
    166,
    166,
    166,
    166,
    166,
    166,
    166,
    166,
    166,
    166,
    166,
    166,
    166,
    166,
    166,
    166,
    166,
    166,
    166,
    166,
    166,
    166,
    166,
    166,
    166,
    166,
    166,
    166,
    166,
    166,
    166,
    166,
    166,
    166,
    166,
    166,
    166,
    166,
    166,
    166,
    166,
    166,
    166,
    166,
    166,
    166,
    166,
    166,
    166,
    166,
    166,
    166,
    166,
    166,
    166,
    166,
    166,
    166,
    166,
    166,
    166,
    166,
    166,
    166,
    166,
    166,
    166,
    166,
    83,
    83,
    83,
    166,
    166,
    166,
    166,
    166,
    166,
    166,
    166,
    83,
    83,
    83,
    83,
    83,
    83,
    83,
    83,
    83,
    83,
    83,
    83,
    83,
    83,
    83,
    83,
    83,
    83,
    83,
    83,
    83,
    83,
    83,
    83,
    83,
    83,
    83,
    83,
    83,
    83,
    83,
    83,
    83,
    83,
    83,
    83,
    83,
    83,
    83,
    83,
    83,
    83,
    83,
    83,
    83,
    83,
    83,
    83,
    83,
    83,
    83,
    83,
    83,
    83,
    83,
    83,
    83,
    83,
    83,
    83,
    83,
    83,
    83,
    83,
    83,
    83,
    83,
    83,
    83,
    83,
    83,
    83,
    83,
    83,
    83,
    83,
    83,
    83,
    166,
    83,
    83,
    83,
    83,
    83,
    83,
    83,
    83,
    83,
    83,
    83,
    83,
    83,
    83,
    83,
    83,
    83,
    83,
    83,
    83,
    83,
    83,
    83,
    83,
    83,
    83,
    83,
    83,
    83,
    83,
    83,
    83,
    83,
    83,
    83,
    83,
    83,
    83,
    83,
    83,
    83,
    83,
    83,
    83,
    83,
    83,
    83,
    83,
    83,
    83,
    83,
    83,
    83,
    83,
    83,
    83,
    83,
    83,
    83,
    83,
    83,
    83,
    83,
    83,
    83,
    83,
    83,
    83,
    83,
    83,
    83,
    83,
    166,
    83,
    83,
    83,
    83,
    83,
    83,
    83,
    83,
    83,
    83,
    83,
    83,
    83,
    83,
    83,
    83,
    83,
    83,
    83,
    83,
    83,
    83,
    83,
    83,
    83,
    83,
    83,
    83,
    83,
    83,
    83,
    83,
    83,
    83,
    83,
    83,
    83,
    83,
    83,
    83,
    83,
    83,
    83,
    83,
    83,
    83,
    83,
    83,
    83,
    83,
    83,
    83,
    83,
    83,
    83,
    83,
    83,
    83,
    83,
    83,
    83,
    83,
    83,
    83,
    83,
    83,
    83,
    83,
    83,
    83,
    83,
    83,
    83,
    83,
    83,
    83,
    83,
    83,
    83,
    83,
    83,
    83,
    83,
    83,
    83,
    83,
    83,
    83,
    83,
    83,
    83,
    83,
    83,
    83,
    83,
    83,
    83,
    83,
    83,
    83,
    83,
    83,
    83,
    83,
    83,
    83,
    83,
    83,
    83,
    83,
    83,
    83,
    83,
    83,
    83,
    83,
    83,
    83,
    83,
    83,
    83,
    83,
    83,
    83,
    83,
    83,
    83,
    83,
    83,
    83,
    83,
    83,
    83,
    83,
    83,
    83,
    83,
    83,
    83,
    83,
    83,
    83,
    83,
    83,
    83,
    83,
    83,
    83,
    83,
    83,
    83,
    83,
    83,
    83,
    83,
    83,
    83,
    83,
    83,
    83,
    83,
    83,
    83,
    83,
    83,
    83,
    83,
    83,
    83,
    83,
    83,
    83,
    83,
    83,
    83,
    83,
    83,
    83,
    83,
    83,
    83,
    83,
    83,
    83,
    83,
    83,
    83,
    83,
    83,
    83,
    83,
    83,
    83,
    83,
    83,
    83,
    83,
    83,
    83,
    83,
    83,
    83,
    83,
    83,
    83,
    83,
    83,
    83,
    83,
    83,
    83,
    83,
    83,
    83,
    83,
    83,
    83,
    83,
    83,
    83,
    83,
    83,
    83,
    83,
    83,
    83,
    83,
    83,
    83,
    83,
    83,
    83,
    83,
    83,
    83,
    83,
    83,
    83,
    83,
    83,
    166,
    83,
    83,
    83,
    83,
    83,
    83,
    83,
    83,
    83,
    83,
    83,
    83,
    83,
    83,
    83,
    83,
    83,
    83,
    83,
    83,
    83,
    83,
    83,
    83,
    83,
    83,
    83,
    83,
    83,
    83,
    83,
    83,
    83,
    83,
    83,
    83,
    83,
    83,
    83,
    83,
    83,
    83,
    83,
    83,
    83,
    83,
    83,
    83,
    83,
    83,
    83,
    83,
    83,
    83,
    83,
    83,
    83,
    83,
    83,
    83,
    83,
    83,
    83,
    83,
    83,
    83,
    83,
    83,
    83,
    83,
    83,
    83,
    83,
    83,
    83,
    83,
    83,
    83,
    166,
    83,
    83,
    83,
    83,
    83,
    83,
    83,
    83,
    83,
    83,
    83,
    83,
    83,
    83,
    83,
    83,
    83,
    83,
    83,
    83,
    83,
    83,
    83,
    83,
    83,
    83,
    83,
    83,
    83,
    83,
    83,
    83,
    83,
    83,
    83,
    83,
    83,
    83,
    83,
    83,
    83,
    83,
    83,
    83,
    83,
    83,
    83,
    83,
    83,
    83,
    83,
    83,
    83,
    83,
    83,
    83,
    83,
    83,
    83,
    83,
    83,
    83,
    83,
    83,
    83,
    83,
    83,
    83,
    83,
    83,
    83,
    83,
    83,
    83,
    83,
    83,
    83,
    83,
    83,
    83,
    83,
    166,
    83,
    83,
    83,
    83,
    83,
    83,
    83,
    83,
    83,
    83,
    83,
    83,
    83,
    83,
    83,
    83,
    83,
    83,
    83,
    83,
    83,
    83,
    83,
    83,
    83,
    83,
    83,
    83,
    83,
    83,
    83,
    83,
    83,
    83,
    83,
    83,
    83,
    83,
    83,
    83,
    83,
    83,
    83,
    83,
    166,
    83,
    83,
    83,
    83,
    83,
    166,
    166,
    83,
    83,
    83,
    83,
    83,
    83,
    83,
    83,
    83,
    83,
    83,
    83,
    83,
    83,
    83,
    83,
    83,
    166,
    166,
    166,
    166,
    166,
    166,
    166,
    166,
    166,
    166,
    166,
    166,
    166,
    166,
    166,
    166,
    166,
    166,
    166,
    166,
    166,
    166,
    166,
    166,
    166,
    166,
    166,
    166,
    166,
    166,
    166,
    166,
    166,
    166,
    166,
    166,
    166,
    166,
    166,
    166,
    166,
    166,
    166,
    166,
    166,
    166,
    166,
    166,
    166,
    166,
    166,
    166,
    166,
    166,
    166,
    166,
    166,
    166,
    166,
    166
};

// The total number of notes in the melody (must match the lengths of both arrays)
const int melody_length = sizeof(melody) / sizeof(melody[0]);